<svg xmlns="http://www.w3.org/2000/svg" width="1800" height="760" viewBox="0 0 1800 760">
<rect width="100%" height="100%" fill="#ffffff"/>
<text x="30.0" y="40.0" font-family="Microsoft YaHei, Arial, sans-serif" font-size="22" font-weight="700" fill="#1f2933" text-anchor="start">扩展样本：各细颗粒度节点 T+20 收益率箱线图</text>
<text x="30.0" y="64.0" font-family="Microsoft YaHei, Arial, sans-serif" font-size="13" font-weight="400" fill="#555" text-anchor="start">箱体越低，说明该节点越容易触发兑现、稀释或风险再定价；箱体越高，说明更可能带来预期修复。</text>
<rect x="90" y="86" width="1660" height="524" fill="#fbfcfd" stroke="#d9e2ec"/>
<line x1="90" y1="610.0" x2="1750" y2="610.0" stroke="#e5e7eb"/>
<text x="80.0" y="614.0" font-family="Microsoft YaHei, Arial, sans-serif" font-size="11" font-weight="400" fill="#667085" text-anchor="end">-51%</text>
<line x1="90" y1="522.7" x2="1750" y2="522.7" stroke="#e5e7eb"/>
<text x="80.0" y="526.7" font-family="Microsoft YaHei, Arial, sans-serif" font-size="11" font-weight="400" fill="#667085" text-anchor="end">-23%</text>
<line x1="90" y1="435.3" x2="1750" y2="435.3" stroke="#e5e7eb"/>
<text x="80.0" y="439.3" font-family="Microsoft YaHei, Arial, sans-serif" font-size="11" font-weight="400" fill="#667085" text-anchor="end">5%</text>
<line x1="90" y1="348.0" x2="1750" y2="348.0" stroke="#e5e7eb"/>
<text x="80.0" y="352.0" font-family="Microsoft YaHei, Arial, sans-serif" font-size="11" font-weight="400" fill="#667085" text-anchor="end">33%</text>
<line x1="90" y1="260.7" x2="1750" y2="260.7" stroke="#e5e7eb"/>
<text x="80.0" y="264.7" font-family="Microsoft YaHei, Arial, sans-serif" font-size="11" font-weight="400" fill="#667085" text-anchor="end">61%</text>
<line x1="90" y1="173.3" x2="1750" y2="173.3" stroke="#e5e7eb"/>
<text x="80.0" y="177.3" font-family="Microsoft YaHei, Arial, sans-serif" font-size="11" font-weight="400" fill="#667085" text-anchor="end">89%</text>
<line x1="90" y1="86.0" x2="1750" y2="86.0" stroke="#e5e7eb"/>
<text x="80.0" y="90.0" font-family="Microsoft YaHei, Arial, sans-serif" font-size="11" font-weight="400" fill="#667085" text-anchor="end">117%</text>
<line x1="90" y1="451.1" x2="1750" y2="451.1" stroke="#555" stroke-width="1.2"/>
<line x1="141.9" y1="216.8" x2="141.9" y2="554.8" stroke="#1f4e5f" stroke-width="1.4"/>
<rect x="117.0" y="431.9" width="49.8" height="46.3" fill="#d9eaf7" stroke="#1f4e5f" stroke-width="1.2"/>
<line x1="117.0" y1="461.7" x2="166.8" y2="461.7" stroke="#d95d5d" stroke-width="2"/>
<text x="141.9" y="632.0" font-family="Microsoft YaHei, Arial" font-size="11" fill="#1f2933" text-anchor="middle">
<tspan x="141.9" dy="0">被申请重整</tspan>
<tspan x="141.9" dy="14">预重整</tspan>
</text>
<text x="141.9" y="666.0" font-family="Microsoft YaHei, Arial, sans-serif" font-size="10" font-weight="400" fill="#667085" text-anchor="middle">n=68</text>
<line x1="245.6" y1="311.7" x2="245.6" y2="527.5" stroke="#1f4e5f" stroke-width="1.4"/>
<rect x="220.7" y="433.2" width="49.8" height="48.6" fill="#d9eaf7" stroke="#1f4e5f" stroke-width="1.2"/>
<line x1="220.7" y1="460.6" x2="270.5" y2="460.6" stroke="#d95d5d" stroke-width="2"/>
<text x="245.6" y="632.0" font-family="Microsoft YaHei, Arial" font-size="11" fill="#1f2933" text-anchor="middle">
<tspan x="245.6" dy="0">法院启动预重整</tspan>
</text>
<text x="245.6" y="666.0" font-family="Microsoft YaHei, Arial, sans-serif" font-size="10" font-weight="400" fill="#667085" text-anchor="middle">n=34</text>
<line x1="349.4" y1="271.0" x2="349.4" y2="555.0" stroke="#1f4e5f" stroke-width="1.4"/>
<rect x="324.5" y="435.1" width="49.8" height="56.2" fill="#d9eaf7" stroke="#1f4e5f" stroke-width="1.2"/>
<line x1="324.5" y1="471.0" x2="374.3" y2="471.0" stroke="#d95d5d" stroke-width="2"/>
<text x="349.4" y="632.0" font-family="Microsoft YaHei, Arial" font-size="11" fill="#1f2933" text-anchor="middle">
<tspan x="349.4" dy="0">临时管理人</tspan>
<tspan x="349.4" dy="14">管理人</tspan>
</text>
<text x="349.4" y="666.0" font-family="Microsoft YaHei, Arial, sans-serif" font-size="10" font-weight="400" fill="#667085" text-anchor="middle">n=73</text>
<line x1="453.1" y1="311.7" x2="453.1" y2="555.0" stroke="#1f4e5f" stroke-width="1.4"/>
<rect x="428.2" y="448.1" width="49.8" height="40.7" fill="#d9eaf7" stroke="#1f4e5f" stroke-width="1.2"/>
<line x1="428.2" y1="475.4" x2="478.0" y2="475.4" stroke="#d95d5d" stroke-width="2"/>
<text x="453.1" y="632.0" font-family="Microsoft YaHei, Arial" font-size="11" fill="#1f2933" text-anchor="middle">
<tspan x="453.1" dy="0">债权申报</tspan>
<tspan x="453.1" dy="14">债权确认</tspan>
</text>
<text x="453.1" y="666.0" font-family="Microsoft YaHei, Arial, sans-serif" font-size="10" font-weight="400" fill="#667085" text-anchor="middle">n=58</text>
<line x1="556.9" y1="311.7" x2="556.9" y2="524.7" stroke="#1f4e5f" stroke-width="1.4"/>
<rect x="532.0" y="401.8" width="49.8" height="74.6" fill="#d9eaf7" stroke="#1f4e5f" stroke-width="1.2"/>
<line x1="532.0" y1="443.6" x2="581.8" y2="443.6" stroke="#d95d5d" stroke-width="2"/>
<text x="556.9" y="632.0" font-family="Microsoft YaHei, Arial" font-size="11" fill="#1f2933" text-anchor="middle">
<tspan x="556.9" dy="0">投资人招募</tspan>
</text>
<text x="556.9" y="666.0" font-family="Microsoft YaHei, Arial, sans-serif" font-size="10" font-weight="400" fill="#667085" text-anchor="middle">n=10</text>
<line x1="660.6" y1="438.5" x2="660.6" y2="474.9" stroke="#1f4e5f" stroke-width="1.4"/>
<rect x="635.7" y="447.6" width="49.8" height="18.2" fill="#d9eaf7" stroke="#1f4e5f" stroke-width="1.2"/>
<line x1="635.7" y1="456.7" x2="685.5" y2="456.7" stroke="#d95d5d" stroke-width="2"/>
<text x="660.6" y="632.0" font-family="Microsoft YaHei, Arial" font-size="11" fill="#1f2933" text-anchor="middle">
<tspan x="660.6" dy="0">招募延期</tspan>
<tspan x="660.6" dy="14">报名情况</tspan>
</text>
<text x="660.6" y="666.0" font-family="Microsoft YaHei, Arial, sans-serif" font-size="10" font-weight="400" fill="#667085" text-anchor="middle">n=2</text>
<line x1="764.4" y1="346.5" x2="764.4" y2="555.0" stroke="#1f4e5f" stroke-width="1.4"/>
<rect x="739.5" y="445.5" width="49.8" height="46.4" fill="#d9eaf7" stroke="#1f4e5f" stroke-width="1.2"/>
<line x1="739.5" y1="477.5" x2="789.3" y2="477.5" stroke="#d95d5d" stroke-width="2"/>
<text x="764.4" y="632.0" font-family="Microsoft YaHei, Arial" font-size="11" fill="#1f2933" text-anchor="middle">
<tspan x="764.4" dy="0">投资人确定</tspan>
<tspan x="764.4" dy="14">中选</tspan>
</text>
<text x="764.4" y="666.0" font-family="Microsoft YaHei, Arial, sans-serif" font-size="10" font-weight="400" fill="#667085" text-anchor="middle">n=42</text>
<line x1="868.1" y1="408.2" x2="868.1" y2="524.7" stroke="#1f4e5f" stroke-width="1.4"/>
<rect x="843.2" y="453.4" width="49.8" height="29.9" fill="#d9eaf7" stroke="#1f4e5f" stroke-width="1.2"/>
<line x1="843.2" y1="468.0" x2="893.0" y2="468.0" stroke="#d95d5d" stroke-width="2"/>
<text x="868.1" y="632.0" font-family="Microsoft YaHei, Arial" font-size="11" fill="#1f2933" text-anchor="middle">
<tspan x="868.1" dy="0">投资协议</tspan>
<tspan x="868.1" dy="14">投资款</tspan>
</text>
<text x="868.1" y="666.0" font-family="Microsoft YaHei, Arial, sans-serif" font-size="10" font-weight="400" fill="#667085" text-anchor="middle">n=34</text>
<line x1="971.9" y1="429.9" x2="971.9" y2="511.0" stroke="#1f4e5f" stroke-width="1.4"/>
<rect x="947.0" y="471.6" width="49.8" height="12.2" fill="#d9eaf7" stroke="#1f4e5f" stroke-width="1.2"/>
<line x1="947.0" y1="477.1" x2="996.8" y2="477.1" stroke="#d95d5d" stroke-width="2"/>
<text x="971.9" y="632.0" font-family="Microsoft YaHei, Arial" font-size="11" fill="#1f2933" text-anchor="middle">
<tspan x="971.9" dy="0">正式受理重整</tspan>
</text>
<text x="971.9" y="666.0" font-family="Microsoft YaHei, Arial, sans-serif" font-size="10" font-weight="400" fill="#667085" text-anchor="middle">n=25</text>
<line x1="1075.6" y1="136.7" x2="1075.6" y2="559.3" stroke="#1f4e5f" stroke-width="1.4"/>
<rect x="1050.7" y="439.2" width="49.8" height="45.4" fill="#d9eaf7" stroke="#1f4e5f" stroke-width="1.2"/>
<line x1="1050.7" y1="468.0" x2="1100.5" y2="468.0" stroke="#d95d5d" stroke-width="2"/>
<text x="1075.6" y="632.0" font-family="Microsoft YaHei, Arial" font-size="11" fill="#1f2933" text-anchor="middle">
<tspan x="1075.6" dy="0">草案披露</tspan>
<tspan x="1075.6" dy="14">权益调整</tspan>
</text>
<text x="1075.6" y="666.0" font-family="Microsoft YaHei, Arial, sans-serif" font-size="10" font-weight="400" fill="#667085" text-anchor="middle">n=74</text>
<line x1="1179.4" y1="311.7" x2="1179.4" y2="459.8" stroke="#1f4e5f" stroke-width="1.4"/>
<rect x="1154.5" y="404.0" width="49.8" height="41.2" fill="#d9eaf7" stroke="#1f4e5f" stroke-width="1.2"/>
<line x1="1154.5" y1="417.9" x2="1204.3" y2="417.9" stroke="#d95d5d" stroke-width="2"/>
<text x="1179.4" y="632.0" font-family="Microsoft YaHei, Arial" font-size="11" fill="#1f2933" text-anchor="middle">
<tspan x="1179.4" dy="0">债权人会议</tspan>
<tspan x="1179.4" dy="14">表决</tspan>
</text>
<text x="1179.4" y="666.0" font-family="Microsoft YaHei, Arial, sans-serif" font-size="10" font-weight="400" fill="#667085" text-anchor="middle">n=6</text>
<line x1="1283.1" y1="330.9" x2="1283.1" y2="555.0" stroke="#1f4e5f" stroke-width="1.4"/>
<rect x="1258.2" y="458.3" width="49.8" height="33.8" fill="#d9eaf7" stroke="#1f4e5f" stroke-width="1.2"/>
<line x1="1258.2" y1="476.5" x2="1308.0" y2="476.5" stroke="#d95d5d" stroke-width="2"/>
<text x="1283.1" y="632.0" font-family="Microsoft YaHei, Arial" font-size="11" fill="#1f2933" text-anchor="middle">
<tspan x="1283.1" dy="0">法院批准计划</tspan>
</text>
<text x="1283.1" y="666.0" font-family="Microsoft YaHei, Arial, sans-serif" font-size="10" font-weight="400" fill="#667085" text-anchor="middle">n=39</text>
<line x1="1386.9" y1="412.5" x2="1386.9" y2="555.0" stroke="#1f4e5f" stroke-width="1.4"/>
<rect x="1362.0" y="461.7" width="49.8" height="28.6" fill="#d9eaf7" stroke="#1f4e5f" stroke-width="1.2"/>
<line x1="1362.0" y1="482.8" x2="1411.8" y2="482.8" stroke="#d95d5d" stroke-width="2"/>
<text x="1386.9" y="632.0" font-family="Microsoft YaHei, Arial" font-size="11" fill="#1f2933" text-anchor="middle">
<tspan x="1386.9" dy="0">资本公积转增</tspan>
<tspan x="1386.9" dy="14">登记</tspan>
</text>
<text x="1386.9" y="666.0" font-family="Microsoft YaHei, Arial, sans-serif" font-size="10" font-weight="400" fill="#667085" text-anchor="middle">n=31</text>
<line x1="1490.6" y1="451.7" x2="1490.6" y2="496.0" stroke="#1f4e5f" stroke-width="1.4"/>
<rect x="1465.7" y="472.2" width="49.8" height="22.1" fill="#d9eaf7" stroke="#1f4e5f" stroke-width="1.2"/>
<line x1="1465.7" y1="492.7" x2="1515.5" y2="492.7" stroke="#d95d5d" stroke-width="2"/>
<text x="1490.6" y="632.0" font-family="Microsoft YaHei, Arial" font-size="11" fill="#1f2933" text-anchor="middle">
<tspan x="1490.6" dy="0">股份划转</tspan>
<tspan x="1490.6" dy="14">控制权</tspan>
</text>
<text x="1490.6" y="666.0" font-family="Microsoft YaHei, Arial, sans-serif" font-size="10" font-weight="400" fill="#667085" text-anchor="middle">n=3</text>
<line x1="1594.4" y1="390.5" x2="1594.4" y2="481.1" stroke="#1f4e5f" stroke-width="1.4"/>
<rect x="1569.5" y="393.9" width="49.8" height="87.1" fill="#d9eaf7" stroke="#1f4e5f" stroke-width="1.2"/>
<line x1="1569.5" y1="458.1" x2="1619.3" y2="458.1" stroke="#d95d5d" stroke-width="2"/>
<text x="1594.4" y="632.0" font-family="Microsoft YaHei, Arial" font-size="11" fill="#1f2933" text-anchor="middle">
<tspan x="1594.4" dy="0">执行完毕</tspan>
</text>
<text x="1594.4" y="666.0" font-family="Microsoft YaHei, Arial, sans-serif" font-size="10" font-weight="400" fill="#667085" text-anchor="middle">n=5</text>
<line x1="1698.1" y1="469.4" x2="1698.1" y2="540.9" stroke="#1f4e5f" stroke-width="1.4"/>
<rect x="1673.2" y="487.3" width="49.8" height="35.8" fill="#d9eaf7" stroke="#1f4e5f" stroke-width="1.2"/>
<line x1="1673.2" y1="505.2" x2="1723.0" y2="505.2" stroke="#d95d5d" stroke-width="2"/>
<text x="1698.1" y="632.0" font-family="Microsoft YaHei, Arial" font-size="11" fill="#1f2933" text-anchor="middle">
<tspan x="1698.1" dy="0">撤销风险警示</tspan>
<tspan x="1698.1" dy="14">复牌</tspan>
</text>
<text x="1698.1" y="666.0" font-family="Microsoft YaHei, Arial, sans-serif" font-size="10" font-weight="400" fill="#667085" text-anchor="middle">n=2</text>
</svg>