<svg xmlns="http://www.w3.org/2000/svg" width="1500" height="720" viewBox="0 0 1500 720">
<rect width="100%" height="100%" fill="#ffffff"/>
<text x="30.0" y="40.0" font-family="Microsoft YaHei, Arial, sans-serif" font-size="24" font-weight="700" fill="#1f2933" text-anchor="start">三家公司：不同重整节点后的 T+20 收益率箱线图</text>
<text x="30.0" y="66.0" font-family="Microsoft YaHei, Arial, sans-serif" font-size="14" font-weight="400" fill="#555555" text-anchor="start">箱体显示四分位区间，中线为中位数，须线为样本最小/最大值；样本较少，适合观察方向和离散度，不宜机械外推。</text>
<rect x="80" y="84" width="1380" height="526" fill="#fbfcfd" stroke="#d9e2ec"/>
<line x1="80" y1="610.0" x2="1460" y2="610.0" stroke="#d9e2ec"/>
<text x="70.0" y="614.0" font-family="Microsoft YaHei, Arial, sans-serif" font-size="12" font-weight="400" fill="#667085" text-anchor="end">-61%</text>
<line x1="80" y1="504.8" x2="1460" y2="504.8" stroke="#d9e2ec"/>
<text x="70.0" y="508.8" font-family="Microsoft YaHei, Arial, sans-serif" font-size="12" font-weight="400" fill="#667085" text-anchor="end">-29%</text>
<line x1="80" y1="399.6" x2="1460" y2="399.6" stroke="#d9e2ec"/>
<text x="70.0" y="403.6" font-family="Microsoft YaHei, Arial, sans-serif" font-size="12" font-weight="400" fill="#667085" text-anchor="end">4%</text>
<line x1="80" y1="294.4" x2="1460" y2="294.4" stroke="#d9e2ec"/>
<text x="70.0" y="298.4" font-family="Microsoft YaHei, Arial, sans-serif" font-size="12" font-weight="400" fill="#667085" text-anchor="end">37%</text>
<line x1="80" y1="189.2" x2="1460" y2="189.2" stroke="#d9e2ec"/>
<text x="70.0" y="193.2" font-family="Microsoft YaHei, Arial, sans-serif" font-size="12" font-weight="400" fill="#667085" text-anchor="end">70%</text>
<line x1="80" y1="84.0" x2="1460" y2="84.0" stroke="#d9e2ec"/>
<text x="70.0" y="88.0" font-family="Microsoft YaHei, Arial, sans-serif" font-size="12" font-weight="400" fill="#667085" text-anchor="end">103%</text>
<line x1="80" y1="413.3" x2="1460" y2="413.3" stroke="#777777" stroke-width="1.2"/>
<line x1="137.5" y1="244.7" x2="137.5" y2="474.6" stroke="#1f4e5f" stroke-width="1.5"/>
<line x1="118.3" y1="244.7" x2="156.7" y2="244.7" stroke="#1f4e5f" stroke-width="1.5"/>
<line x1="118.3" y1="474.6" x2="156.7" y2="474.6" stroke="#1f4e5f" stroke-width="1.5"/>
<rect x="108.8" y="298.3" width="57.5" height="152.7" fill="#d9eaf7" stroke="#1f4e5f" stroke-width="1.5"/>
<line x1="108.8" y1="379.6" x2="166.2" y2="379.6" stroke="#d95d5d" stroke-width="2.2"/>
<text x="137.5" y="638.0" font-family="Microsoft YaHei, Arial, sans-serif" font-size="13" font-weight="700" fill="#1f2933" text-anchor="middle">申请</text>
<text x="137.5" y="658.0" font-family="Microsoft YaHei, Arial, sans-serif" font-size="11" font-weight="400" fill="#667085" text-anchor="middle">n=4</text>
<line x1="252.5" y1="381.0" x2="252.5" y2="452.8" stroke="#1f4e5f" stroke-width="1.5"/>
<line x1="233.3" y1="381.0" x2="271.7" y2="381.0" stroke="#1f4e5f" stroke-width="1.5"/>
<line x1="233.3" y1="452.8" x2="271.7" y2="452.8" stroke="#1f4e5f" stroke-width="1.5"/>
<rect x="223.8" y="381.6" width="57.5" height="35.9" fill="#d9eaf7" stroke="#1f4e5f" stroke-width="1.5"/>
<line x1="223.8" y1="382.2" x2="281.2" y2="382.2" stroke="#d95d5d" stroke-width="2.2"/>
<text x="252.5" y="638.0" font-family="Microsoft YaHei, Arial, sans-serif" font-size="13" font-weight="700" fill="#1f2933" text-anchor="middle">预重整</text>
<text x="252.5" y="658.0" font-family="Microsoft YaHei, Arial, sans-serif" font-size="11" font-weight="400" fill="#667085" text-anchor="middle">n=3</text>
<line x1="367.5" y1="451.6" x2="367.5" y2="491.0" stroke="#1f4e5f" stroke-width="1.5"/>
<line x1="348.3" y1="451.6" x2="386.7" y2="451.6" stroke="#1f4e5f" stroke-width="1.5"/>
<line x1="348.3" y1="491.0" x2="386.7" y2="491.0" stroke="#1f4e5f" stroke-width="1.5"/>
<rect x="338.8" y="452.9" width="57.5" height="10.8" fill="#d9eaf7" stroke="#1f4e5f" stroke-width="1.5"/>
<line x1="338.8" y1="454.0" x2="396.2" y2="454.0" stroke="#d95d5d" stroke-width="2.2"/>
<text x="367.5" y="638.0" font-family="Microsoft YaHei, Arial, sans-serif" font-size="13" font-weight="700" fill="#1f2933" text-anchor="middle">债权</text>
<text x="367.5" y="658.0" font-family="Microsoft YaHei, Arial, sans-serif" font-size="11" font-weight="400" fill="#667085" text-anchor="middle">n=4</text>
<line x1="482.5" y1="408.6" x2="482.5" y2="433.6" stroke="#1f4e5f" stroke-width="1.5"/>
<line x1="463.3" y1="408.6" x2="501.7" y2="408.6" stroke="#1f4e5f" stroke-width="1.5"/>
<line x1="463.3" y1="433.6" x2="501.7" y2="433.6" stroke="#1f4e5f" stroke-width="1.5"/>
<rect x="453.8" y="419.0" width="57.5" height="12.5" fill="#d9eaf7" stroke="#1f4e5f" stroke-width="1.5"/>
<line x1="453.8" y1="429.4" x2="511.2" y2="429.4" stroke="#d95d5d" stroke-width="2.2"/>
<text x="482.5" y="638.0" font-family="Microsoft YaHei, Arial, sans-serif" font-size="13" font-weight="700" fill="#1f2933" text-anchor="middle">招募</text>
<text x="482.5" y="658.0" font-family="Microsoft YaHei, Arial, sans-serif" font-size="11" font-weight="400" fill="#667085" text-anchor="middle">n=3</text>
<line x1="597.5" y1="423.6" x2="597.5" y2="428.3" stroke="#1f4e5f" stroke-width="1.5"/>
<line x1="578.3" y1="423.6" x2="616.7" y2="423.6" stroke="#1f4e5f" stroke-width="1.5"/>
<line x1="578.3" y1="428.3" x2="616.7" y2="428.3" stroke="#1f4e5f" stroke-width="1.5"/>
<rect x="568.8" y="424.8" width="57.5" height="2.3" fill="#d9eaf7" stroke="#1f4e5f" stroke-width="1.5"/>
<line x1="568.8" y1="425.9" x2="626.2" y2="425.9" stroke="#d95d5d" stroke-width="2.2"/>
<text x="597.5" y="638.0" font-family="Microsoft YaHei, Arial, sans-serif" font-size="13" font-weight="700" fill="#1f2933" text-anchor="middle">投资人</text>
<text x="597.5" y="658.0" font-family="Microsoft YaHei, Arial, sans-serif" font-size="11" font-weight="400" fill="#667085" text-anchor="middle">n=2</text>
<line x1="712.5" y1="401.9" x2="712.5" y2="452.4" stroke="#1f4e5f" stroke-width="1.5"/>
<line x1="693.3" y1="401.9" x2="731.7" y2="401.9" stroke="#1f4e5f" stroke-width="1.5"/>
<line x1="693.3" y1="452.4" x2="731.7" y2="452.4" stroke="#1f4e5f" stroke-width="1.5"/>
<rect x="683.8" y="419.4" width="57.5" height="25.2" fill="#d9eaf7" stroke="#1f4e5f" stroke-width="1.5"/>
<line x1="683.8" y1="437.0" x2="741.2" y2="437.0" stroke="#d95d5d" stroke-width="2.2"/>
<text x="712.5" y="638.0" font-family="Microsoft YaHei, Arial, sans-serif" font-size="13" font-weight="700" fill="#1f2933" text-anchor="middle">受理</text>
<text x="712.5" y="658.0" font-family="Microsoft YaHei, Arial, sans-serif" font-size="11" font-weight="400" fill="#667085" text-anchor="middle">n=3</text>
<line x1="827.5" y1="427.1" x2="827.5" y2="464.2" stroke="#1f4e5f" stroke-width="1.5"/>
<line x1="808.3" y1="427.1" x2="846.7" y2="427.1" stroke="#1f4e5f" stroke-width="1.5"/>
<line x1="808.3" y1="464.2" x2="846.7" y2="464.2" stroke="#1f4e5f" stroke-width="1.5"/>
<rect x="798.8" y="440.8" width="57.5" height="12.4" fill="#d9eaf7" stroke="#1f4e5f" stroke-width="1.5"/>
<line x1="798.8" y1="447.4" x2="856.2" y2="447.4" stroke="#d95d5d" stroke-width="2.2"/>
<text x="827.5" y="638.0" font-family="Microsoft YaHei, Arial, sans-serif" font-size="13" font-weight="700" fill="#1f2933" text-anchor="middle">草案</text>
<text x="827.5" y="658.0" font-family="Microsoft YaHei, Arial, sans-serif" font-size="11" font-weight="400" fill="#667085" text-anchor="middle">n=4</text>
<line x1="942.5" y1="435.4" x2="942.5" y2="470.6" stroke="#1f4e5f" stroke-width="1.5"/>
<line x1="923.3" y1="435.4" x2="961.7" y2="435.4" stroke="#1f4e5f" stroke-width="1.5"/>
<line x1="923.3" y1="470.6" x2="961.7" y2="470.6" stroke="#1f4e5f" stroke-width="1.5"/>
<rect x="913.8" y="437.0" width="57.5" height="17.6" fill="#d9eaf7" stroke="#1f4e5f" stroke-width="1.5"/>
<line x1="913.8" y1="438.6" x2="971.2" y2="438.6" stroke="#d95d5d" stroke-width="2.2"/>
<text x="942.5" y="638.0" font-family="Microsoft YaHei, Arial, sans-serif" font-size="13" font-weight="700" fill="#1f2933" text-anchor="middle">批准</text>
<text x="942.5" y="658.0" font-family="Microsoft YaHei, Arial, sans-serif" font-size="11" font-weight="400" fill="#667085" text-anchor="middle">n=3</text>
<line x1="1057.5" y1="468.9" x2="1057.5" y2="473.2" stroke="#1f4e5f" stroke-width="1.5"/>
<line x1="1038.3" y1="468.9" x2="1076.7" y2="468.9" stroke="#1f4e5f" stroke-width="1.5"/>
<line x1="1038.3" y1="473.2" x2="1076.7" y2="473.2" stroke="#1f4e5f" stroke-width="1.5"/>
<rect x="1028.8" y="468.9" width="57.5" height="2.1" fill="#d9eaf7" stroke="#1f4e5f" stroke-width="1.5"/>
<line x1="1028.8" y1="468.9" x2="1086.2" y2="468.9" stroke="#d95d5d" stroke-width="2.2"/>
<text x="1057.5" y="638.0" font-family="Microsoft YaHei, Arial, sans-serif" font-size="13" font-weight="700" fill="#1f2933" text-anchor="middle">转增</text>
<text x="1057.5" y="658.0" font-family="Microsoft YaHei, Arial, sans-serif" font-size="11" font-weight="400" fill="#667085" text-anchor="middle">n=3</text>
<line x1="1172.5" y1="354.4" x2="1172.5" y2="530.1" stroke="#1f4e5f" stroke-width="1.5"/>
<line x1="1153.3" y1="354.4" x2="1191.7" y2="354.4" stroke="#1f4e5f" stroke-width="1.5"/>
<line x1="1153.3" y1="530.1" x2="1191.7" y2="530.1" stroke="#1f4e5f" stroke-width="1.5"/>
<rect x="1143.8" y="403.3" width="57.5" height="87.8" fill="#d9eaf7" stroke="#1f4e5f" stroke-width="1.5"/>
<line x1="1143.8" y1="452.1" x2="1201.2" y2="452.1" stroke="#d95d5d" stroke-width="2.2"/>
<text x="1172.5" y="638.0" font-family="Microsoft YaHei, Arial, sans-serif" font-size="13" font-weight="700" fill="#1f2933" text-anchor="middle">完毕</text>
<text x="1172.5" y="658.0" font-family="Microsoft YaHei, Arial, sans-serif" font-size="11" font-weight="400" fill="#667085" text-anchor="middle">n=3</text>
<line x1="1287.5" y1="365.7" x2="1287.5" y2="505.7" stroke="#1f4e5f" stroke-width="1.5"/>
<line x1="1268.3" y1="365.7" x2="1306.7" y2="365.7" stroke="#1f4e5f" stroke-width="1.5"/>
<line x1="1268.3" y1="505.7" x2="1306.7" y2="505.7" stroke="#1f4e5f" stroke-width="1.5"/>
<rect x="1258.8" y="378.4" width="57.5" height="70.0" fill="#d9eaf7" stroke="#1f4e5f" stroke-width="1.5"/>
<line x1="1258.8" y1="391.0" x2="1316.2" y2="391.0" stroke="#d95d5d" stroke-width="2.2"/>
<text x="1287.5" y="638.0" font-family="Microsoft YaHei, Arial, sans-serif" font-size="13" font-weight="700" fill="#1f2933" text-anchor="middle">警示</text>
<text x="1287.5" y="658.0" font-family="Microsoft YaHei, Arial, sans-serif" font-size="11" font-weight="400" fill="#667085" text-anchor="middle">n=3</text>
<line x1="1402.5" y1="153.6" x2="1402.5" y2="540.4" stroke="#1f4e5f" stroke-width="1.5"/>
<line x1="1383.3" y1="153.6" x2="1421.7" y2="153.6" stroke="#1f4e5f" stroke-width="1.5"/>
<line x1="1383.3" y1="540.4" x2="1421.7" y2="540.4" stroke="#1f4e5f" stroke-width="1.5"/>
<rect x="1373.8" y="398.7" width="57.5" height="49.3" fill="#d9eaf7" stroke="#1f4e5f" stroke-width="1.5"/>
<line x1="1373.8" y1="432.0" x2="1431.2" y2="432.0" stroke="#d95d5d" stroke-width="2.2"/>
<text x="1402.5" y="638.0" font-family="Microsoft YaHei, Arial, sans-serif" font-size="13" font-weight="700" fill="#1f2933" text-anchor="middle">进展</text>
<text x="1402.5" y="658.0" font-family="Microsoft YaHei, Arial, sans-serif" font-size="11" font-weight="400" fill="#667085" text-anchor="middle">n=37</text>
<text x="30.0" y="696.0" font-family="Microsoft YaHei, Arial, sans-serif" font-size="13" font-weight="400" fill="#555555" text-anchor="start">读法：箱体整体高于0，说明该类节点更偏正反馈；箱体低于0或下须很长，说明兑现/稀释/风险暴露压力较大。</text>
</svg>